# xmcd
#
# Track frame offsets:
#	150
#	19935
#	38687
#	48439
#	60619
#	81471
#	99548
#	111362
#	137982
#	155150
#	172728
#	191131
#	215964
#	229991
#	249111
#
# Disc length: 3510 seconds
#
# Revision: 2
# Processed by: cddbd v1.5.2PL0 Copyright (c) Steve Scherf et al.
# Submitted via: audiograbber 1.83.01
#
DISCID=d80db40f
DTITLE=петяокоуйас вакйиас - жуса, ьувг лоу! CD1
DYEAR=2015
DGENRE=гпеияытийа
TTITLE0=есеис поукайиа тоу лацоу - амтымгс йуяитсгс
TTITLE1=ти ле йоитате, амупамтяес - гкиас йомтгс
TTITLE2=поталиа - ояцамийо
TTITLE3=сам вояеуы та йацйекиа - амтымгс йуяитсгс
TTITLE4=та бажтисиа - амтымгс йуяитсгс
TTITLE5=боумоспаялемг гпеияос - амтымгс йуяитсгс
TTITLE6=сгйыхгйам та боума - гкиас йомтгс, амхоука моусг
TTITLE7=ояцамийо пыцымисио - ояцамийо
TTITLE8=омта глоум миос - гкиас йомтгс
TTITLE9=лациа лоу ╢йамес - гкиас йомтгс, амхоука моусг
TTITLE10=тяеис адеяжоукес гластам - гкиас йомтгс, амхоука моусг
TTITLE11=отам айоуы гпеияо - амтымгс йуяитсгс
TTITLE12=цемобежа - ояцамийо
TTITLE13=жеццаяопяосыпг - циаммгс йымстамтимоу
TTITLE14=еды вояеуоум йояасиес - циаммгс йымстамтимоу
EXTD=
EXTT0=
EXTT1=
EXTT2=
EXTT3=
EXTT4=
EXTT5=
EXTT6=
EXTT7=
EXTT8=
EXTT9=
EXTT10=
EXTT11=
EXTT12=
EXTT13=
EXTT14=
PLAYORDER=
